<svg xmlns="http://www.w3.org/2000/svg" viewBox="0 0 150.54 150.54"><defs><style>.cls-1{fill:#fff;}.cls-2{fill:#13293d;}.cls-3{fill:#fac748;}.cls-4{fill:#13263d;}</style></defs><title>logo-camera</title><g id="Calque_2" data-name="Calque 2"><g id="Calque_1-2" data-name="Calque 1"><circle class="cls-1" cx="75.27" cy="75.27" r="75.27"/><g id="Calque_2-2" data-name="Calque 2"><g id="Calque_1-2-2" data-name="Calque 1-2"><path class="cls-2" d="M116.08,47.65l-.62-.93a6,6,0,0,0-1.4-1.49l-2.22-1.68a7.84,7.84,0,0,0-2.44-1.29l-.91-.3a8.38,8.38,0,0,0-3.59-.31l-54,6V44.4a.45.45,0,0,0-.45-.45h0l-11.74.81a.46.46,0,0,0-.42.45v4l-2.49.91a6.52,6.52,0,0,0-2.07,1.24l-1.21,1.09a6.21,6.21,0,0,0-1.73,2.63l-.56,1.71a7.82,7.82,0,0,0-.42,2.54v34a12,12,0,0,0,.61,3.76,6.33,6.33,0,0,0,1.8,2.77,12.56,12.56,0,0,0,3,2l1.86.86a7,7,0,0,0,2.46.63l32.3,2.1-3.58,14.8,21.21-12.6,17.41.45a6.92,6.92,0,0,0,3.53-.86,11,11,0,0,0,3-2.35l1.05-1.24a9.54,9.54,0,0,0,.87-1.14l.82-1.29a7.13,7.13,0,0,0,1.1-3.81V51.47A6.74,6.74,0,0,0,116.08,47.65Zm-8.52,47.4a6.19,6.19,0,0,1-1.47,4,2.87,2.87,0,0,1-.53.45,5.2,5.2,0,0,1-2.91.7L40.34,97.09a6.89,6.89,0,0,1-4.28-1.78h0L35.94,95a9.17,9.17,0,0,1-.71-3.54V58.56A2.73,2.73,0,0,1,36.94,56l.77-.31h0l63.39-6.49h.67a7.13,7.13,0,0,1,2.49.58,9.62,9.62,0,0,1,3,2.3,1.15,1.15,0,0,1,.29.79Z"/><path class="cls-2" d="M112.07,41.57h4.31a9,9,0,0,1,3.82.85l1.24.58a7.92,7.92,0,0,1,3.12,2.65l.57.81a10.63,10.63,0,0,1,1.88,6V97.1a8.86,8.86,0,0,1-2,5.55l-1.46,1.8a9.07,9.07,0,0,1-2.5,2.2l-.52.29a14.47,14.47,0,0,1-7.1,1.86h-2.36l4.1-1.66a10.51,10.51,0,0,0,3.6-2.43l.75-.78a8.3,8.3,0,0,0,2.18-4.12l.5-2.43a9.08,9.08,0,0,0,.18-1.8l-.16-41.84a10.17,10.17,0,0,0-1-4.37l-1-2.07a5.84,5.84,0,0,0-.84-1.31l-.93-1.11a7,7,0,0,0-3-2.09Z"/><rect class="cls-3" x="38.17" y="59.61" width="10.81" height="5.07" rx="1.37"/><path class="cls-4" d="M67.47,57.65A17.45,17.45,0,0,0,57,61.09a1.92,1.92,0,0,1,.48.15c2,.81,2.84,3.41,1.87,5.8S56,70.71,54,69.89a3.66,3.66,0,0,1-2.15-2.7,17.59,17.59,0,1,0,15.64-9.54ZM63.88,72a2.13,2.13,0,0,1-2.76,1.11,2.41,2.41,0,0,1,2.34-4A2.13,2.13,0,0,1,63.88,72Z"/><path class="cls-2" d="M91.41,75.27A18.85,18.85,0,0,1,72.57,94.13h0A18,18,0,0,1,70,94a18.85,18.85,0,0,0,0-37.36,18,18,0,0,1,2.54-.18A18.85,18.85,0,0,1,91.41,75.26Z"/><path class="cls-3" d="M26.47,47.38c-.75,1.49-3.34.92-7.74-.52-3.75-1.21-5.77-4.44-5-5.93s4.68-2,7.74.52C24.73,44.1,27.23,45.89,26.47,47.38Z"/><path class="cls-3" d="M24.64,56.3c-.08,1.26-2.08,1.57-5.62,1.76-3,.17-5.3-1.55-5.18-2.81s2.77-2.68,5.62-1.76C22.5,54.46,24.76,55,24.64,56.3Z"/><path class="cls-3" d="M33.42,39.65c-.86.94-2.72,0-5.86-2-2.69-1.7-3.72-4.54-2.89-5.5s3.89-.5,5.89,2C32.61,36.79,34.24,38.65,33.42,39.65Z"/></g></g></g></g></svg>